<svg xmlns="http://www.w3.org/2000/svg" xmlns:xlink="http://www.w3.org/1999/xlink" xmlns:lucid="lucid" width="1054" height="794"><g transform="translate(-629.6666666666665 -25.333333333333258)" lucid:page-tab-id="0_0"><path d="M1256.67 52.33a6 6 0 0 1 6-6h394a6 6 0 0 1 6 6v316a6 6 0 0 1-6 6h-394a6 6 0 0 1-6-6z" fill="#fff0fb"/><path d="M1256.67 52.33a6 6 0 0 1 6-6h394a6 6 0 0 1 6 6v316a6 6 0 0 1-6 6h-394a6 6 0 0 1-6-6zM1256.67 86.33h406M1459.67 86.33v288" stroke="#febed9" stroke-width="2" fill="none"/><use xlink:href="#a" transform="matrix(1,0,0,1,1266.6666666666665,46.33333333333326) translate(162.075 23.6)"/><use xlink:href="#b" transform="matrix(1,0,0,1,1261.6666666666665,88.83333333333326) translate(0 17.1)"/><use xlink:href="#c" transform="matrix(1,0,0,1,1464.6666666666665,88.83333333333326) translate(0 17.1)"/><use xlink:href="#d" transform="matrix(1,0,0,1,1261.6666666666665,120.83333333333326) translate(0 17.1)"/><use xlink:href="#e" transform="matrix(1,0,0,1,1464.6666666666665,120.83333333333326) translate(0 17.1)"/><use xlink:href="#f" transform="matrix(1,0,0,1,1261.6666666666665,152.83333333333326) translate(0 17.1)"/><use xlink:href="#e" transform="matrix(1,0,0,1,1464.6666666666665,152.83333333333326) translate(0 17.1)"/><use xlink:href="#g" transform="matrix(1,0,0,1,1261.6666666666665,184.83333333333326) translate(0 17.1)"/><use xlink:href="#e" transform="matrix(1,0,0,1,1464.6666666666665,184.83333333333326) translate(0 17.1)"/><use xlink:href="#h" transform="matrix(1,0,0,1,1261.6666666666665,216.83333333333326) translate(0 17.1)"/><use xlink:href="#e" transform="matrix(1,0,0,1,1464.6666666666665,216.83333333333326) translate(0 17.1)"/><use xlink:href="#i" transform="matrix(1,0,0,1,1261.6666666666665,248.83333333333326) translate(0 17.1)"/><use xlink:href="#j" transform="matrix(1,0,0,1,1464.6666666666665,248.83333333333326) translate(0 17.1)"/><use xlink:href="#k" transform="matrix(1,0,0,1,1261.6666666666665,280.83333333333326) translate(0 17.1)"/><use xlink:href="#e" transform="matrix(1,0,0,1,1464.6666666666665,280.83333333333326) translate(0 17.1)"/><use xlink:href="#l" transform="matrix(1,0,0,1,1261.6666666666665,312.83333333333326) translate(0 17.1)"/><use xlink:href="#e" transform="matrix(1,0,0,1,1464.6666666666665,312.83333333333326) translate(0 17.1)"/><use xlink:href="#m" transform="matrix(1,0,0,1,1261.6666666666665,344.83333333333326) translate(0 17.1)"/><use xlink:href="#n" transform="matrix(1,0,0,1,1464.6666666666665,344.83333333333326) translate(0 17.1)"/><path d="M684.5 668.33a6 6 0 0 1 6-6h394a6 6 0 0 1 6 6v124a6 6 0 0 1-6 6h-394a6 6 0 0 1-6-6z" fill="#fff0fb"/><path d="M684.5 668.33a6 6 0 0 1 6-6h394a6 6 0 0 1 6 6v124a6 6 0 0 1-6 6h-394a6 6 0 0 1-6-6zM684.5 702.33h406M887.5 702.33v96" stroke="#febed9" stroke-width="2" fill="none"/><use xlink:href="#o" transform="matrix(1,0,0,1,694.4999999999999,662.3333333333333) translate(137.075 23.6)"/><use xlink:href="#p" transform="matrix(1,0,0,1,689.4999999999999,704.8333333333333) translate(0 17.1)"/><use xlink:href="#c" transform="matrix(1,0,0,1,892.4999999999999,704.8333333333333) translate(0 17.1)"/><use xlink:href="#d" transform="matrix(1,0,0,1,689.4999999999999,736.8333333333333) translate(0 17.1)"/><use xlink:href="#e" transform="matrix(1,0,0,1,892.4999999999999,736.8333333333333) translate(0 17.1)"/><use xlink:href="#q" transform="matrix(1,0,0,1,689.4999999999999,768.8333333333333) translate(0 17.1)"/><use xlink:href="#r" transform="matrix(1,0,0,1,892.4999999999999,768.8333333333333) translate(0 17.1)"/><use xlink:href="#s" transform="matrix(1,0,0,1,892.4999999999999,768.8333333333333) translate(23.95 17.1)"/><path d="M650.67 311.33a6 6 0 0 1 6-6h394a6 6 0 0 1 6 6v92a6 6 0 0 1-6 6h-394a6 6 0 0 1-6-6z" fill="#fff0fb"/><path d="M650.67 311.33a6 6 0 0 1 6-6h394a6 6 0 0 1 6 6v92a6 6 0 0 1-6 6h-394a6 6 0 0 1-6-6zM650.67 345.33h406M853.67 345.33v64" stroke="#febed9" stroke-width="2" fill="none"/><use xlink:href="#t" transform="matrix(1,0,0,1,660.6666666666665,305.33333333333326) translate(174.025 23.6)"/><use xlink:href="#q" transform="matrix(1,0,0,1,655.6666666666665,347.83333333333326) translate(0 17.1)"/><use xlink:href="#r" transform="matrix(1,0,0,1,858.6666666666665,347.83333333333326) translate(0 17.1)"/><use xlink:href="#u" transform="matrix(1,0,0,1,858.6666666666665,347.83333333333326) translate(23.95 17.1)"/><use xlink:href="#d" transform="matrix(1,0,0,1,655.6666666666665,379.83333333333326) translate(0 17.1)"/><use xlink:href="#e" transform="matrix(1,0,0,1,858.6666666666665,379.83333333333326) translate(0 17.1)"/><path d="M854.64 641.33h-1.95v-94.7h1.94zm0-116.3h-1.95v-94.7h1.94z" stroke="#5e5e5e" stroke-width=".05" fill="#5e5e5e"/><path d="M854.64 419.36h9.03v1.95h-9.03v8.06h9.03v1.95h-20v-1.94h9.02v-8.05h-9.03v-1.94h9.02v-9.03h1.94zM863.67 641.86h-8.43l9.3 18.6-1.75.86-8.16-16.3v15.87h-1.95V645l-8.16 16.3-1.75-.87 9.3-18.6h-8.43v-1.94h20z" stroke="#5e5e5e" stroke-width=".05" fill="#5e5e5e"/><use xlink:href="#v" transform="matrix(1,0,0,1,827.6916666666665,525.0333376269035) translate(0 14.4)"/><path d="M1460.64 676.37l-.08 1.05-.26 1.07-.42 1-.57.93-.7.84-.83.7-.93.58-1.02.42-1.06.25-1.06.1h-322.2v-1.96h322.13l.82-.07.77-.2.73-.3.67-.4.6-.52.5-.6.42-.67.3-.72.2-.76.05-.83v-17.5h1.94zm0-38.92h-1.95V415.33h1.94z" stroke="#5e5e5e" stroke-width=".05" fill="#5e5e5e"/><path d="M1125.1 672.84l2.75 1.42 2.17 2.17 1.42 2.74.5 3.16-.5 3.16-1.42 2.74-2.17 2.16-2.74 1.42-3.15.5-3.16-.5-2.76-1.42-2.16-2.16-1.42-2.75-.5-3.17.5-3.16 1.42-2.74 2.16-2.17 2.75-1.42 3.15-.5zm-33.15 19.5l20-10m-20-10l20 10m0 0h-20" fill="#fff"/><path d="M1125.42 671.9l3 1.57 2.4 2.38 1.56 3 .55 3.48-.56 3.47-1.56 3.02-2.37 2.38-3 1.56-3.48.56-3.47-.56-3.02-1.56-2.38-2.38-1.56-3.02-.32-2-18.82 9.4-.87-1.74 16.32-8.15h-15.87v-1.94h15.87l-16.3-8.15.86-1.74 18.82 9.4.32-2 1.56-3 2.38-2.4 3.02-1.56 3.47-.55zm-6.32 1.88l-2.48 1.28-1.95 1.95-1.28 2.48-.47 2.85.46 2.85 1.27 2.48 1.95 1.95 2.48 1.3 2.85.45 2.85-.46 2.47-1.3 1.95-1.94 1.28-2.48.46-2.85-.46-2.85-1.28-2.47-1.95-1.94-2.47-1.28-2.85-.46z" stroke="#5e5e5e" stroke-width=".05" fill="#5e5e5e"/><path d="M1462.83 396.3l2.74 1.4 2.17 2.18 1.42 2.74.5 3.16-.5 3.16-1.42 2.75-2.17 2.15-2.74 1.42-3.16.5-3.16-.5-2.74-1.42-2.16-2.16-1.42-2.76-.5-3.16.5-3.16 1.42-2.75 2.16-2.16 2.75-1.4 3.17-.52zm6.84-20.52l-10 20m-10-20l10 20m0-20v20" fill="#fff"/><path d="M1470.54 376.22l-9.4 18.8 2 .33 3 1.56 2.4 2.4 1.56 3 .55 3.48-.56 3.47-1.57 3.02-2.38 2.38-3 1.56-3.48.57-3.47-.56-3.02-1.55-2.38-2.38-1.56-3.02-.56-3.47.56-3.47 1.56-3 2.38-2.4 3.02-1.55 2-.32-9.4-18.8 1.74-.9 8.15 16.32v-15.87h1.94v15.87l8.15-16.3zm-13.72 21l-2.48 1.3-1.95 1.94-1.3 2.47-.45 2.85.46 2.85 1.3 2.47 1.94 1.95 2.48 1.28 2.85.46 2.85-.47 2.47-1.27 1.94-1.96 1.28-2.47.46-2.85-.46-2.85-1.28-2.47-1.95-1.95-2.48-1.27-2.85-.46z" stroke="#5e5e5e" stroke-width=".05" fill="#5e5e5e"/><g><use xlink:href="#w" transform="matrix(1,0,0,1,1430.5802469135801,637.4541896106182) translate(0 14.222222222222223)"/></g><defs><path d="M232-93c-1 65-40 97-104 97C67 4 28-28 28-90v-158h33c8 89-33 224 67 224 102 0 64-133 71-224h33v155" id="x"/><path d="M135-143c-3-34-86-38-87 0 15 53 115 12 119 90S17 21 10-45l28-5c4 36 97 45 98 0-10-56-113-15-118-90-4-57 82-63 122-42 12 7 21 19 24 35" id="y"/><path d="M84 4C-5 8 30-112 23-190h32v120c0 31 7 50 39 49 72-2 45-101 50-169h31l1 190h-30c-1-10 1-25-2-33-11 22-28 36-60 37" id="z"/><path d="M141-36C126-15 110 5 73 4 37 3 15-17 15-53c-1-64 63-63 125-63 3-35-9-54-41-54-24 1-41 7-42 31l-33-3c5-37 33-52 76-52 45 0 72 20 72 64v82c-1 20 7 32 28 27v20c-31 9-61-2-59-35zM48-53c0 20 12 33 32 33 41-3 63-29 60-74-43 2-92-5-92 41" id="A"/><path d="M114-163C36-179 61-72 57 0H25l-1-190h30c1 12-1 29 2 39 6-27 23-49 58-41v29" id="B"/><path d="M24-231v-30h32v30H24zM24 0v-190h32V0H24" id="C"/><path d="M100-194c62-1 85 37 85 99 1 63-27 99-86 99S16-35 15-95c0-66 28-99 85-99zM99-20c44 1 53-31 53-75 0-43-8-75-51-75s-53 32-53 75 10 74 51 75" id="D"/><g id="a"><use transform="matrix(0.05,0,0,0.05,0,0)" xlink:href="#x"/><use transform="matrix(0.05,0,0,0.05,12.950000000000001,0)" xlink:href="#y"/><use transform="matrix(0.05,0,0,0.05,21.950000000000003,0)" xlink:href="#z"/><use transform="matrix(0.05,0,0,0.05,31.950000000000003,0)" xlink:href="#A"/><use transform="matrix(0.05,0,0,0.05,41.95,0)" xlink:href="#B"/><use transform="matrix(0.05,0,0,0.05,47.900000000000006,0)" xlink:href="#C"/><use transform="matrix(0.05,0,0,0.05,51.85,0)" xlink:href="#D"/></g><path d="M85-194c31 0 48 13 60 33l-1-100h32l1 261h-30c-2-10 0-23-3-31C134-8 116 4 85 4 32 4 16-35 15-94c0-66 23-100 70-100zm9 24c-40 0-46 34-46 75 0 40 6 74 45 74 42 0 51-32 51-76 0-42-9-74-50-73" id="E"/><g id="b"><use transform="matrix(0.05,0,0,0.05,0,0)" xlink:href="#C"/><use transform="matrix(0.05,0,0,0.05,3.95,0)" xlink:href="#E"/></g><path d="M117-194c89-4 53 116 60 194h-32v-121c0-31-8-49-39-48C34-167 62-67 57 0H25l-1-190h30c1 10-1 24 2 32 11-22 29-35 61-36" id="F"/><path d="M59-47c-2 24 18 29 38 22v24C64 9 27 4 27-40v-127H5v-23h24l9-43h21v43h35v23H59v120" id="G"/><g id="c"><use transform="matrix(0.05,0,0,0.05,0,0)" xlink:href="#C"/><use transform="matrix(0.05,0,0,0.05,3.95,0)" xlink:href="#F"/><use transform="matrix(0.05,0,0,0.05,13.949999999999998,0)" xlink:href="#G"/></g><path d="M210-169c-67 3-38 105-44 169h-31v-121c0-29-5-50-35-48C34-165 62-65 56 0H25l-1-190h30c1 10-1 24 2 32 10-44 99-50 107 0 11-21 27-35 58-36 85-2 47 119 55 194h-31v-121c0-29-5-49-35-48" id="H"/><path d="M100-194c63 0 86 42 84 106H49c0 40 14 67 53 68 26 1 43-12 49-29l28 8c-11 28-37 45-77 45C44 4 14-33 15-96c1-61 26-98 85-98zm52 81c6-60-76-77-97-28-3 7-6 17-6 28h103" id="I"/><g id="d"><use transform="matrix(0.05,0,0,0.05,0,0)" xlink:href="#F"/><use transform="matrix(0.05,0,0,0.05,10,0)" xlink:href="#D"/><use transform="matrix(0.05,0,0,0.05,20,0)" xlink:href="#H"/><use transform="matrix(0.05,0,0,0.05,34.95,0)" xlink:href="#I"/></g><path d="M177-190C167-65 218 103 67 71c-23-6-38-20-44-43l32-5c15 47 100 32 89-28v-30C133-14 115 1 83 1 29 1 15-40 15-95c0-56 16-97 71-98 29-1 48 16 59 35 1-10 0-23 2-32h30zM94-22c36 0 50-32 50-73 0-42-14-75-50-75-39 0-46 34-46 75s6 73 46 73" id="J"/><g id="e"><use transform="matrix(0.05,0,0,0.05,0,0)" xlink:href="#y"/><use transform="matrix(0.05,0,0,0.05,9,0)" xlink:href="#G"/><use transform="matrix(0.05,0,0,0.05,14,0)" xlink:href="#B"/><use transform="matrix(0.05,0,0,0.05,19.95,0)" xlink:href="#C"/><use transform="matrix(0.05,0,0,0.05,23.9,0)" xlink:href="#F"/><use transform="matrix(0.05,0,0,0.05,33.9,0)" xlink:href="#J"/></g><path d="M24 0v-261h32V0H24" id="K"/><path d="M101-234c-31-9-42 10-38 44h38v23H63V0H32v-167H5v-23h27c-7-52 17-82 69-68v24" id="L"/><g id="f"><use transform="matrix(0.05,0,0,0.05,0,0)" xlink:href="#G"/><use transform="matrix(0.05,0,0,0.05,5,0)" xlink:href="#I"/><use transform="matrix(0.05,0,0,0.05,15,0)" xlink:href="#K"/><use transform="matrix(0.05,0,0,0.05,18.95,0)" xlink:href="#I"/><use transform="matrix(0.05,0,0,0.05,28.950000000000003,0)" xlink:href="#L"/><use transform="matrix(0.05,0,0,0.05,33.95,0)" xlink:href="#D"/><use transform="matrix(0.05,0,0,0.05,43.95,0)" xlink:href="#F"/><use transform="matrix(0.05,0,0,0.05,53.95,0)" xlink:href="#I"/></g><g id="g"><use transform="matrix(0.05,0,0,0.05,0,0)" xlink:href="#I"/><use transform="matrix(0.05,0,0,0.05,10,0)" xlink:href="#H"/><use transform="matrix(0.05,0,0,0.05,24.950000000000003,0)" xlink:href="#A"/><use transform="matrix(0.05,0,0,0.05,34.95,0)" xlink:href="#C"/><use transform="matrix(0.05,0,0,0.05,38.900000000000006,0)" xlink:href="#K"/></g><path d="M106-169C34-169 62-67 57 0H25v-261h32l-1 103c12-21 28-36 61-36 89 0 53 116 60 194h-32v-121c2-32-8-49-39-48" id="M"/><g id="h"><use transform="matrix(0.05,0,0,0.05,0,0)" xlink:href="#y"/><use transform="matrix(0.05,0,0,0.05,9,0)" xlink:href="#I"/><use transform="matrix(0.05,0,0,0.05,19,0)" xlink:href="#F"/><use transform="matrix(0.05,0,0,0.05,29,0)" xlink:href="#M"/><use transform="matrix(0.05,0,0,0.05,39,0)" xlink:href="#A"/></g><path d="M96-169c-40 0-48 33-48 73s9 75 48 75c24 0 41-14 43-38l32 2c-6 37-31 61-74 61-59 0-76-41-82-99-10-93 101-131 147-64 4 7 5 14 7 22l-32 3c-4-21-16-35-41-35" id="N"/><g id="i"><use transform="matrix(0.05,0,0,0.05,0,0)" xlink:href="#N"/><use transform="matrix(0.05,0,0,0.05,9,0)" xlink:href="#I"/><use transform="matrix(0.05,0,0,0.05,19,0)" xlink:href="#B"/><use transform="matrix(0.05,0,0,0.05,24.95,0)" xlink:href="#G"/><use transform="matrix(0.05,0,0,0.05,29.950000000000003,0)" xlink:href="#C"/><use transform="matrix(0.05,0,0,0.05,33.9,0)" xlink:href="#L"/><use transform="matrix(0.05,0,0,0.05,38.9,0)" xlink:href="#C"/><use transform="matrix(0.05,0,0,0.05,42.85,0)" xlink:href="#N"/><use transform="matrix(0.05,0,0,0.05,51.85,0)" xlink:href="#A"/><use transform="matrix(0.05,0,0,0.05,61.85,0)" xlink:href="#E"/><use transform="matrix(0.05,0,0,0.05,71.85,0)" xlink:href="#D"/><use transform="matrix(0.05,0,0,0.05,81.85,0)" xlink:href="#y"/></g><path d="M115-194c53 0 69 39 70 98 0 66-23 100-70 100C84 3 66-7 56-30L54 0H23l1-261h32v101c10-23 28-34 59-34zm-8 174c40 0 45-34 45-75 0-40-5-75-45-74-42 0-51 32-51 76 0 43 10 73 51 73" id="O"/><g id="j"><use transform="matrix(0.05,0,0,0.05,0,0)" xlink:href="#O"/><use transform="matrix(0.05,0,0,0.05,10,0)" xlink:href="#K"/><use transform="matrix(0.05,0,0,0.05,13.949999999999998,0)" xlink:href="#D"/><use transform="matrix(0.05,0,0,0.05,23.95,0)" xlink:href="#O"/></g><path d="M115-194c55 1 70 41 70 98S169 2 115 4C84 4 66-9 55-30l1 105H24l-1-265h31l2 30c10-21 28-34 59-34zm-8 174c40 0 45-34 45-75s-6-73-45-74c-42 0-51 32-51 76 0 43 10 73 51 73" id="P"/><g id="k"><use transform="matrix(0.05,0,0,0.05,0,0)" xlink:href="#I"/><use transform="matrix(0.05,0,0,0.05,10,0)" xlink:href="#y"/><use transform="matrix(0.05,0,0,0.05,19,0)" xlink:href="#P"/><use transform="matrix(0.05,0,0,0.05,29,0)" xlink:href="#I"/><use transform="matrix(0.05,0,0,0.05,39,0)" xlink:href="#N"/><use transform="matrix(0.05,0,0,0.05,48,0)" xlink:href="#C"/><use transform="matrix(0.05,0,0,0.05,51.95,0)" xlink:href="#A"/><use transform="matrix(0.05,0,0,0.05,61.95,0)" xlink:href="#K"/><use transform="matrix(0.05,0,0,0.05,65.9,0)" xlink:href="#C"/><use transform="matrix(0.05,0,0,0.05,69.85000000000001,0)" xlink:href="#E"/><use transform="matrix(0.05,0,0,0.05,79.85000000000001,0)" xlink:href="#A"/><use transform="matrix(0.05,0,0,0.05,89.85000000000001,0)" xlink:href="#E"/><use transform="matrix(0.05,0,0,0.05,99.85000000000001,0)" xlink:href="#I"/></g><g id="l"><use transform="matrix(0.05,0,0,0.05,0,0)" xlink:href="#E"/><use transform="matrix(0.05,0,0,0.05,10,0)" xlink:href="#C"/><use transform="matrix(0.05,0,0,0.05,13.949999999999998,0)" xlink:href="#y"/><use transform="matrix(0.05,0,0,0.05,22.95,0)" xlink:href="#P"/><use transform="matrix(0.05,0,0,0.05,32.95,0)" xlink:href="#D"/><use transform="matrix(0.05,0,0,0.05,42.95,0)" xlink:href="#F"/><use transform="matrix(0.05,0,0,0.05,52.95,0)" xlink:href="#C"/><use transform="matrix(0.05,0,0,0.05,56.900000000000006,0)" xlink:href="#O"/><use transform="matrix(0.05,0,0,0.05,66.9,0)" xlink:href="#C"/><use transform="matrix(0.05,0,0,0.05,70.85000000000001,0)" xlink:href="#K"/><use transform="matrix(0.05,0,0,0.05,74.80000000000001,0)" xlink:href="#C"/><use transform="matrix(0.05,0,0,0.05,78.75000000000001,0)" xlink:href="#E"/><use transform="matrix(0.05,0,0,0.05,88.75000000000001,0)" xlink:href="#A"/><use transform="matrix(0.05,0,0,0.05,98.75000000000001,0)" xlink:href="#E"/><use transform="matrix(0.05,0,0,0.05,108.75,0)" xlink:href="#I"/></g><path d="M108 0H70L1-190h34L89-25l56-165h34" id="Q"/><g id="m"><use transform="matrix(0.05,0,0,0.05,0,0)" xlink:href="#A"/><use transform="matrix(0.05,0,0,0.05,10,0)" xlink:href="#Q"/><use transform="matrix(0.05,0,0,0.05,19,0)" xlink:href="#A"/><use transform="matrix(0.05,0,0,0.05,29,0)" xlink:href="#K"/><use transform="matrix(0.05,0,0,0.05,32.95,0)" xlink:href="#C"/><use transform="matrix(0.05,0,0,0.05,36.900000000000006,0)" xlink:href="#A"/><use transform="matrix(0.05,0,0,0.05,46.900000000000006,0)" xlink:href="#N"/><use transform="matrix(0.05,0,0,0.05,55.900000000000006,0)" xlink:href="#A"/><use transform="matrix(0.05,0,0,0.05,65.9,0)" xlink:href="#D"/></g><g id="n"><use transform="matrix(0.05,0,0,0.05,0,0)" xlink:href="#L"/><use transform="matrix(0.05,0,0,0.05,5,0)" xlink:href="#K"/><use transform="matrix(0.05,0,0,0.05,8.95,0)" xlink:href="#D"/><use transform="matrix(0.05,0,0,0.05,18.95,0)" xlink:href="#A"/><use transform="matrix(0.05,0,0,0.05,28.950000000000003,0)" xlink:href="#G"/></g><path d="M30 0v-248h187v28H63v79h144v27H63v87h162V0H30" id="R"/><g id="o"><use transform="matrix(0.05,0,0,0.05,0,0)" xlink:href="#R"/><use transform="matrix(0.05,0,0,0.05,12,0)" xlink:href="#y"/><use transform="matrix(0.05,0,0,0.05,21,0)" xlink:href="#P"/><use transform="matrix(0.05,0,0,0.05,31,0)" xlink:href="#I"/><use transform="matrix(0.05,0,0,0.05,41,0)" xlink:href="#N"/><use transform="matrix(0.05,0,0,0.05,50,0)" xlink:href="#C"/><use transform="matrix(0.05,0,0,0.05,53.95,0)" xlink:href="#A"/><use transform="matrix(0.05,0,0,0.05,63.95,0)" xlink:href="#K"/><use transform="matrix(0.05,0,0,0.05,67.9,0)" xlink:href="#C"/><use transform="matrix(0.05,0,0,0.05,71.85000000000001,0)" xlink:href="#E"/><use transform="matrix(0.05,0,0,0.05,81.85000000000001,0)" xlink:href="#A"/><use transform="matrix(0.05,0,0,0.05,91.85000000000001,0)" xlink:href="#E"/><use transform="matrix(0.05,0,0,0.05,101.85000000000001,0)" xlink:href="#I"/></g><path d="M-5 72V49h209v23H-5" id="S"/><path d="M33 0v-248h34V0H33" id="T"/><g id="p"><use transform="matrix(0.05,0,0,0.05,0,0)" xlink:href="#I"/><use transform="matrix(0.05,0,0,0.05,10,0)" xlink:href="#y"/><use transform="matrix(0.05,0,0,0.05,19,0)" xlink:href="#P"/><use transform="matrix(0.05,0,0,0.05,29,0)" xlink:href="#S"/><use transform="matrix(0.05,0,0,0.05,39,0)" xlink:href="#T"/><use transform="matrix(0.05,0,0,0.05,44,0)" xlink:href="#E"/></g><g id="q"><use transform="matrix(0.05,0,0,0.05,0,0)" xlink:href="#A"/><use transform="matrix(0.05,0,0,0.05,10,0)" xlink:href="#B"/><use transform="matrix(0.05,0,0,0.05,15.949999999999998,0)" xlink:href="#I"/><use transform="matrix(0.05,0,0,0.05,25.950000000000003,0)" xlink:href="#A"/><use transform="matrix(0.05,0,0,0.05,35.95,0)" xlink:href="#S"/><use transform="matrix(0.05,0,0,0.05,45.95,0)" xlink:href="#T"/><use transform="matrix(0.05,0,0,0.05,50.95,0)" xlink:href="#E"/></g><g id="r"><use transform="matrix(0.05,0,0,0.05,0,0)" xlink:href="#C"/><use transform="matrix(0.05,0,0,0.05,3.95,0)" xlink:href="#F"/><use transform="matrix(0.05,0,0,0.05,13.949999999999998,0)" xlink:href="#G"/></g><path d="M87 75C49 33 22-17 22-94c0-76 28-126 65-167h31c-38 41-64 92-64 168S80 34 118 75H87" id="U"/><path d="M63-220v92h138v28H63V0H30v-248h175v28H63" id="V"/><path d="M194 0L95-120 63-95V0H30v-248h33v124l119-124h40L117-140 236 0h-42" id="W"/><path d="M33-261c38 41 65 92 65 168S71 34 33 75H2C39 34 66-17 66-93S39-220 2-261h31" id="X"/><g id="s"><use transform="matrix(0.05,0,0,0.05,0,0)" xlink:href="#U"/><use transform="matrix(0.05,0,0,0.05,5.95,0)" xlink:href="#V"/><use transform="matrix(0.05,0,0,0.05,16.900000000000002,0)" xlink:href="#W"/><use transform="matrix(0.05,0,0,0.05,28.900000000000002,0)" xlink:href="#X"/></g><path d="M205 0l-28-72H64L36 0H1l101-248h38L239 0h-34zm-38-99l-47-123c-12 45-31 82-46 123h93" id="Y"/><g id="t"><use transform="matrix(0.05,0,0,0.05,0,0)" xlink:href="#Y"/><use transform="matrix(0.05,0,0,0.05,12,0)" xlink:href="#B"/><use transform="matrix(0.05,0,0,0.05,17.95,0)" xlink:href="#I"/><use transform="matrix(0.05,0,0,0.05,27.950000000000003,0)" xlink:href="#A"/></g><path d="M30-248c87 1 191-15 191 75 0 78-77 80-158 76V0H30v-248zm33 125c57 0 124 11 124-50 0-59-68-47-124-48v98" id="Z"/><g id="u"><use transform="matrix(0.05,0,0,0.05,0,0)" xlink:href="#U"/><use transform="matrix(0.05,0,0,0.05,5.95,0)" xlink:href="#Z"/><use transform="matrix(0.05,0,0,0.05,17.95,0)" xlink:href="#W"/><use transform="matrix(0.05,0,0,0.05,29.950000000000003,0)" xlink:href="#X"/></g><g id="v"><use transform="matrix(0.05,0,0,0.05,0,0)" xlink:href="#P"/><use transform="matrix(0.05,0,0,0.05,10,0)" xlink:href="#D"/><use transform="matrix(0.05,0,0,0.05,20,0)" xlink:href="#y"/><use transform="matrix(0.05,0,0,0.05,29,0)" xlink:href="#y"/><use transform="matrix(0.05,0,0,0.05,38,0)" xlink:href="#z"/><use transform="matrix(0.05,0,0,0.05,48,0)" xlink:href="#C"/></g><path fill="#333" d="M24-248c93 1 206-16 204 79-1 75-69 88-152 82V0H24v-248zm52 121c47 0 100 7 100-41 0-47-54-39-100-39v80" id="aa"/><path fill="#333" d="M110-194c64 0 96 36 96 99 0 64-35 99-97 99-61 0-95-36-95-99 0-62 34-99 96-99zm-1 164c35 0 45-28 45-65 0-40-10-65-43-65-34 0-45 26-45 65 0 36 10 65 43 65" id="ab"/><path fill="#333" d="M137-138c1-29-70-34-71-4 15 46 118 7 119 86 1 83-164 76-172 9l43-7c4 19 20 25 44 25 33 8 57-30 24-41C81-84 22-81 20-136c-2-80 154-74 161-7" id="ac"/><path fill="#333" d="M85 4C-2 5 27-109 22-190h50c7 57-23 150 33 157 60-5 35-97 40-157h50l1 190h-47c-2-12 1-28-3-38-12 25-28 42-61 42" id="ad"/><path fill="#333" d="M25-224v-37h50v37H25zM25 0v-190h50V0H25" id="ae"/><g id="w"><use transform="matrix(0.04938271604938272,0,0,0.04938271604938272,0,0)" xlink:href="#aa"/><use transform="matrix(0.04938271604938272,0,0,0.04938271604938272,11.851851851851853,0)" xlink:href="#ab"/><use transform="matrix(0.04938271604938272,0,0,0.04938271604938272,22.666666666666668,0)" xlink:href="#ac"/><use transform="matrix(0.04938271604938272,0,0,0.04938271604938272,32.543209876543216,0)" xlink:href="#ac"/><use transform="matrix(0.04938271604938272,0,0,0.04938271604938272,42.41975308641976,0)" xlink:href="#ad"/><use transform="matrix(0.04938271604938272,0,0,0.04938271604938272,53.23456790123457,0)" xlink:href="#ae"/></g></defs></g></svg>